<svg id="Layer_1" data-name="Layer 1" xmlns="http://www.w3.org/2000/svg" viewBox="0 0 469.34 469.33"><title>pencil-1</title><path d="M456.84,76.17l-64-64.06c-16.13-16.14-44.18-16.17-60.37,0L45.76,301.68a10.73,10.73,0,0,0-2.68,4.59L.41,455.73a10.68,10.68,0,0,0,10.26,13.61,10.85,10.85,0,0,0,2.93-.41l149.33-42.7a10.71,10.71,0,0,0,4.58-2.69l289.33-287a42.71,42.71,0,0,0,0-60.38ZM286,89.74,325.25,129l-205,205-14.71-29.44A10.69,10.69,0,0,0,96,298.67H78.92ZM26.2,443.14,40.1,394.5l34.74,34.74ZM149.34,408l-51,14.58L46.8,371l14.58-51h28l18.38,36.77a10.69,10.69,0,0,0,4.77,4.77l36.77,18.39v28Zm21.33-17.54V373.33a10.67,10.67,0,0,0-5.9-9.54l-29.43-14.71,205-205,39.26,39.27Zm271.11-268.7-47,46.61L301,74.59l46.59-47c8.06-8.06,22.1-8.06,30.16,0l64,64a21.33,21.33,0,0,1,0,30.14Z" transform="translate(0 0)" fill="#fff"/></svg>